<?xml version="1.0" standalone="no"?>
<!DOCTYPE svg PUBLIC "-//W3C//DTD SVG 20010904//EN"
 "http://www.w3.org/TR/2001/REC-SVG-20010904/DTD/svg10.dtd">
<svg version="1.0" xmlns="http://www.w3.org/2000/svg"
 width="500.000000pt" height="453.000000pt" viewBox="0 0 500.000000 453.000000"
 preserveAspectRatio="xMidYMid meet">

<g transform="translate(0.000000,453.000000) scale(0.100000,-0.100000)"
fill="#000000" stroke="none">
<path d="M1116 1814 c-4 -9 -9 -15 -11 -12 -6 6 -165 -155 -165 -166 0 -14
102 -147 110 -144 19 7 200 189 200 200 0 19 -100 138 -115 138 -7 0 -16 -7
-19 -16z m24 -94 c28 -28 26 -75 -5 -105 -31 -32 -58 -32 -84 1 -28 36 -26 60
8 95 35 34 54 36 81 9z"/>
<path d="M1072 1704 c-26 -18 -29 -56 -6 -78 26 -26 52 -19 72 21 14 25 7 50
-19 63 -23 13 -21 13 -47 -6z m23 -40 c0 -10 -8 -20 -17 -22 -18 -3 -26 27
-11 42 12 11 28 0 28 -20z"/>
<path d="M959 1693 c-13 -16 -12 -17 4 -4 9 7 17 15 17 17 0 8 -8 3 -21 -13z"/>
<path d="M1985 1683 c-28 -28 -15 -93 30 -148 l38 -46 44 43 c23 23 43 48 43
56 0 18 -45 72 -79 94 -33 22 -55 23 -76 1z m63 -5 c9 -9 5 -19 -20 -45 -40
-41 -48 -41 -48 0 0 50 38 75 68 45z m32 -84 c15 -39 12 -44 -20 -28 -29 15
-38 33 -23 47 14 15 34 6 43 -19z"/>
</g>
</svg>
