<?xml version="1.0" encoding="UTF-8"?>
<!DOCTYPE svg PUBLIC "-//W3C//DTD SVG 1.1//EN" "http://www.w3.org/Graphics/SVG/1.1/DTD/svg11.dtd">
<svg xmlns="http://www.w3.org/2000/svg" version="1.1" width="496px" height="113px" style="shape-rendering:geometricPrecision; text-rendering:geometricPrecision; image-rendering:optimizeQuality; fill-rule:evenodd; clip-rule:evenodd" xmlns:xlink="http://www.w3.org/1999/xlink">
<g><path style="opacity:0.933" fill="#0f9d57" d="M 365.5,-0.5 C 372.167,-0.5 378.833,-0.5 385.5,-0.5C 385.5,28.8333 385.5,58.1667 385.5,87.5C 378.833,87.5 372.167,87.5 365.5,87.5C 365.5,58.1667 365.5,28.8333 365.5,-0.5 Z"/></g>
<g><path style="opacity:0.934" fill="#4285f4" d="M 61.5,1.5 C 70.3032,1.02724 78.9699,1.86057 87.5,4C 89.2226,4.5232 90.556,5.5232 91.5,7C 90.3333,11.1667 89.1667,15.3333 88,19.5C 87.6121,20.428 86.9454,21.0946 86,21.5C 77.6001,17.6734 69.1001,17.1734 60.5,20C 56.5,23.6667 56.5,27.3333 60.5,31C 68.986,34.7435 77.3193,38.7435 85.5,43C 94.0433,49.9229 96.8766,58.7562 94,69.5C 87.3703,82.9935 76.3703,89.3269 61,88.5C 52.8366,88.2793 45.0032,86.6126 37.5,83.5C 37.1667,82.8333 36.8333,82.1667 36.5,81.5C 37.7144,76.292 39.381,71.292 41.5,66.5C 50.7194,71.4524 60.3861,72.6191 70.5,70C 75.4361,66.0424 75.7695,61.7091 71.5,57C 62.3249,53.613 53.6583,49.2797 45.5,44C 35.8553,33.8606 35.022,23.0273 43,11.5C 48.4574,6.69062 54.6241,3.35728 61.5,1.5 Z"/></g>
<g><path style="opacity:0.921" fill="#0f9d57" d="M 123.5,8.5 C 124.833,8.5 126.167,8.5 127.5,8.5C 127.5,14.1667 127.5,19.8333 127.5,25.5C 131.833,25.5 136.167,25.5 140.5,25.5C 140.5,30.5 140.5,35.5 140.5,40.5C 136.167,40.5 131.833,40.5 127.5,40.5C 127.334,49.8393 127.5,59.1726 128,68.5C 128.5,69.6667 129.333,70.5 130.5,71C 133.817,71.4983 137.15,71.665 140.5,71.5C 140.805,76.7616 140.471,81.9283 139.5,87C 128.551,90.6023 119.051,88.4356 111,80.5C 109.601,77.6366 108.601,74.6366 108,71.5C 107.5,61.172 107.334,50.8387 107.5,40.5C 104.833,40.5 102.167,40.5 99.5,40.5C 99.5,35.5 99.5,30.5 99.5,25.5C 102.167,25.5 104.833,25.5 107.5,25.5C 107.5,21.1667 107.5,16.8333 107.5,12.5C 113.095,11.7679 118.429,10.4346 123.5,8.5 Z"/></g>
<g><path style="opacity:0.939" fill="#f3b400" d="M 172.5,24.5 C 200.203,23.5701 212.703,36.9035 210,64.5C 203.952,83.1196 191.119,90.9529 171.5,88C 153.06,82.87 144.893,70.7033 147,51.5C 149.266,36.4056 157.766,27.4056 172.5,24.5 Z M 177.5,38.5 C 183.73,38.5226 187.563,41.5226 189,47.5C 191.123,54.607 190.79,61.607 188,68.5C 182.936,75.0235 177.269,75.6901 171,70.5C 166.333,61.1667 166.333,51.8333 171,42.5C 173.013,40.7518 175.18,39.4185 177.5,38.5 Z"/></g>
<g><path style="opacity:0.938" fill="#da4436" d="M 243.5,24.5 C 267.2,22.0522 280.2,32.5522 282.5,56C 281.738,76.595 271.072,87.4283 250.5,88.5C 226.75,86.375 216.25,73.375 219,49.5C 222.014,35.9867 230.181,27.6533 243.5,24.5 Z M 249.5,38.5 C 253.514,38.56 256.681,40.2267 259,43.5C 264.432,54.2039 263.266,64.0372 255.5,73C 247.625,75.3101 242.459,72.4767 240,64.5C 238.887,57.2851 239.554,50.2851 242,43.5C 243.913,40.7197 246.413,39.053 249.5,38.5 Z"/></g>
<g><path style="opacity:0.939" fill="#4285f4" d="M 328.5,112.5 C 321.167,112.5 313.833,112.5 306.5,112.5C 303.054,111.292 299.554,109.958 296,108.5C 296.339,103.463 297.172,98.4631 298.5,93.5C 302.441,94.757 306.441,95.9236 310.5,97C 325.016,99.7978 332.182,93.9645 332,79.5C 324.694,86.4926 316.194,88.3259 306.5,85C 291.984,76.1497 286.817,63.3164 291,46.5C 298,26.9147 311.166,20.748 330.5,28C 332.049,29.214 333.215,30.714 334,32.5C 334.497,30.1902 334.663,27.8568 334.5,25.5C 340.5,25.5 346.5,25.5 352.5,25.5C 352,47.8561 351.166,70.1894 350,92.5C 346.449,103.223 339.282,109.89 328.5,112.5 Z M 319.5,39.5 C 325.031,39.1767 328.864,41.51 331,46.5C 331.667,52.8333 331.667,59.1667 331,65.5C 327.252,71.5422 322.085,73.0422 315.5,70C 313.106,68.0478 311.606,65.5478 311,62.5C 310.161,57.0788 310.494,51.7455 312,46.5C 313.767,43.228 316.267,40.8947 319.5,39.5 Z"/></g>
<g><path style="opacity:0.929" fill="#da4436" d="M 420.5,24.5 C 446.221,24.0649 457.388,36.7316 454,62.5C 441.229,63.1579 428.396,63.8245 415.5,64.5C 418.138,69.8253 422.472,72.6586 428.5,73C 435.315,73.4314 441.981,72.5981 448.5,70.5C 449.563,74.6481 450.563,78.8148 451.5,83C 451.355,83.772 451.022,84.4387 450.5,85C 436.155,90.2538 422.155,89.5872 408.5,83C 398.111,74.1674 394.277,63.0007 397,49.5C 399.914,36.422 407.748,28.0887 420.5,24.5 Z M 425.5,37.5 C 432.63,38.298 436.297,42.298 436.5,49.5C 429.5,49.5 422.5,49.5 415.5,49.5C 415.652,42.6921 418.986,38.6921 425.5,37.5 Z"/></g>
</svg>
