<?xml version="1.0" encoding="UTF-8"?>
<!DOCTYPE svg PUBLIC "-//W3C//DTD SVG 1.1//EN" "http://www.w3.org/Graphics/SVG/1.1/DTD/svg11.dtd">
<svg xmlns="http://www.w3.org/2000/svg" version="1.1" width="1226px" height="329px" style="shape-rendering:geometricPrecision; text-rendering:geometricPrecision; image-rendering:optimizeQuality; fill-rule:evenodd; clip-rule:evenodd" xmlns:xlink="http://www.w3.org/1999/xlink">
<g><path style="opacity:0.996" fill="#0f9d57" d="M 958.5,-0.5 C 976.833,-0.5 995.167,-0.5 1013.5,-0.5C 1013.5,84.1667 1013.5,168.833 1013.5,253.5C 995.167,253.5 976.833,253.5 958.5,253.5C 958.5,168.833 958.5,84.1667 958.5,-0.5 Z"/></g>
<g><path style="opacity:0.975" fill="#4285f4" d="M -0.5,242.5 C -0.5,241.167 -0.5,239.833 -0.5,238.5C 3.38221,224.29 7.21554,209.957 11,195.5C 37.4481,209.898 65.2815,213.731 94.5,207C 109.581,199.09 113.415,187.59 106,172.5C 99.6309,165.729 92.1309,160.562 83.5,157C 63.744,151.2 45.4106,142.533 28.5,131C 2.46103,108.673 -4.03897,81.5059 9,49.5C 18.6066,32.1006 32.7732,19.9339 51.5,13C 59.9479,10.0547 68.6146,8.0547 77.5,7C 98.8057,5.14206 119.806,6.80873 140.5,12C 146.254,13.5835 151.754,15.7502 157,18.5C 153.771,33.698 149.604,48.698 144.5,63.5C 124.692,54.0786 104.026,50.5786 82.5,53C 63.2488,56.3767 56.4155,67.2101 62,85.5C 64.8688,88.7041 68.0354,91.5374 71.5,94C 90.7989,102.659 110.132,111.325 129.5,120C 162.041,138.921 173.541,166.755 164,203.5C 156.193,225.974 141.026,241.141 118.5,249C 96.3654,256.097 73.6987,258.43 50.5,256C 32.6616,254.458 15.6616,249.958 -0.5,242.5 Z"/></g>
<g><path style="opacity:0.982" fill="#0f9d57" d="M 258.5,26.5 C 260.486,43.1338 261.152,60.1338 260.5,77.5C 273.833,77.5 287.167,77.5 300.5,77.5C 300.5,91.1667 300.5,104.833 300.5,118.5C 287.167,118.5 273.833,118.5 260.5,118.5C 260.333,140.169 260.5,161.836 261,183.5C 261.65,208.348 273.983,217.015 298,209.5C 298.364,221.173 298.864,232.84 299.5,244.5C 299.438,247.613 298.771,250.446 297.5,253C 280.238,257.145 262.905,257.812 245.5,255C 225.554,250.054 213.388,237.554 209,217.5C 208.088,213.205 207.421,208.872 207,204.5C 206.5,175.835 206.333,147.169 206.5,118.5C 198.5,118.5 190.5,118.5 182.5,118.5C 182.5,104.833 182.5,91.1667 182.5,77.5C 190.5,77.5 198.5,77.5 206.5,77.5C 206.5,64.5 206.5,51.5 206.5,38.5C 224.087,35.1011 241.421,31.1011 258.5,26.5 Z"/></g>
<g><path style="opacity:0.978" fill="#f3b400" d="M 413.5,72.5 C 451.803,72.2151 479.636,88.8817 497,122.5C 504.091,140.869 506.425,159.869 504,179.5C 496.846,223.988 471.012,249.821 426.5,257C 389.722,262.194 359.556,250.694 336,222.5C 322.204,200.404 317.204,176.404 321,150.5C 327.618,109.55 351.118,84.383 391.5,75C 398.981,74.1416 406.314,73.3083 413.5,72.5 Z M 410.5,112.5 C 428.141,113.967 439.308,123.3 444,140.5C 450.134,162.327 448.134,183.327 438,203.5C 426.903,218.36 413.069,221.527 396.5,213C 387.857,206.231 382.357,197.398 380,186.5C 374.733,165.044 377.399,144.711 388,125.5C 393.891,118.145 401.391,113.812 410.5,112.5 Z"/></g>
<g><path style="opacity:0.978" fill="#da4436" d="M 622.5,72.5 C 660.803,72.2151 688.636,88.8817 706,122.5C 713.091,140.869 715.425,159.869 713,179.5C 705.846,223.988 680.012,249.821 635.5,257C 598.722,262.194 568.556,250.694 545,222.5C 531.204,200.404 526.204,176.404 530,150.5C 536.618,109.55 560.118,84.383 600.5,75C 607.981,74.1416 615.314,73.3083 622.5,72.5 Z M 619.5,112.5 C 637.141,113.967 648.308,123.3 653,140.5C 659.134,162.327 657.134,183.327 647,203.5C 635.903,218.36 622.069,221.527 605.5,213C 596.857,206.231 591.357,197.398 589,186.5C 583.733,165.044 586.399,144.711 597,125.5C 602.891,118.145 610.391,113.812 619.5,112.5 Z"/></g>
<g><path style="opacity:0.979" fill="#4285f4" d="M 835.5,328.5 C 822.833,328.5 810.167,328.5 797.5,328.5C 781.967,326.905 767.134,322.571 753,315.5C 755.386,300.953 758.886,286.62 763.5,272.5C 786.568,285.884 810.901,289.051 836.5,282C 849.557,275.063 857.057,264.23 859,249.5C 859.667,243.167 859.667,236.833 859,230.5C 846.98,245.3 831.313,252.633 812,252.5C 773.505,250.013 749.505,230.013 740,192.5C 732.122,157.88 738.788,126.547 760,98.5C 785.974,72.3714 815.808,66.5381 849.5,81C 855.977,84.9771 861.311,90.1438 865.5,96.5C 866.552,90.2038 867.219,83.8705 867.5,77.5C 883.833,77.5 900.167,77.5 916.5,77.5C 915.774,87.1414 915.274,96.808 915,106.5C 914.667,153.167 914.333,199.833 914,246.5C 910.414,295.584 884.247,322.917 835.5,328.5 Z M 823.5,115.5 C 841.514,114.249 853.014,122.249 858,139.5C 860.207,156.23 859.874,172.897 857,189.5C 850.541,206.316 838.375,213.15 820.5,210C 810.552,207.051 803.385,200.884 799,191.5C 791.201,171.548 791.868,151.882 801,132.5C 806.42,123.893 813.92,118.226 823.5,115.5 Z"/></g>
<g><path style="opacity:0.977" fill="#da4436" d="M 1121.5,73.5 C 1182.86,70.5243 1213.86,99.8576 1214.5,161.5C 1214.37,168.851 1214.04,176.184 1213.5,183.5C 1175.83,183.5 1138.17,183.5 1100.5,183.5C 1103.31,198.15 1111.98,207.65 1126.5,212C 1143.4,216.263 1160.4,216.596 1177.5,213C 1184.55,211.652 1191.55,210.152 1198.5,208.5C 1200.38,220.744 1202.72,232.911 1205.5,245C 1205.17,245.5 1204.83,246 1204.5,246.5C 1178.25,255.695 1151.25,258.862 1123.5,256C 1073.37,248.195 1047.7,218.862 1046.5,168C 1046.55,136.591 1058.21,110.591 1081.5,90C 1093.64,81.4258 1106.97,75.9258 1121.5,73.5 Z M 1126.5,110.5 C 1142.12,108.557 1153.29,114.557 1160,128.5C 1161.95,134.006 1163.12,139.672 1163.5,145.5C 1142.16,145.833 1120.82,145.5 1099.5,144.5C 1100.99,132.142 1106.66,122.309 1116.5,115C 1119.82,113.17 1123.15,111.67 1126.5,110.5 Z"/></g>
</svg>
